<svg xmlns="http://www.w3.org/2000/svg" version="1.1" xmlns:xlink="http://www.w3.org/1999/xlink" xmlns:svgjs="http://svgjs.dev/svgjs" width="2000" height="1500" viewBox="0 0 2000 1500"><rect width="2000" height="1500" fill="#482729"></rect><g transform="matrix(0.75,0,0,0.75,249.090909090909,584.5041412236466)"><svg viewBox="0 0 396 87" data-background-color="#482729" preserveAspectRatio="xMidYMid meet" height="439" width="2000" xmlns="http://www.w3.org/2000/svg" xmlns:xlink="http://www.w3.org/1999/xlink"><g id="tight-bounds" transform="matrix(1,0,0,1,0.2400000000000091,0.230113025186796)"><svg viewBox="0 0 395.52 86.5397739496264" height="86.5397739496264" width="395.52"><g><svg viewBox="0 0 589.3304075333331 128.94549011320754" height="86.5397739496264" width="395.52"><g transform="matrix(1,0,0,1,193.81040753333306,39.84602807547169)"><svg viewBox="0 0 395.52 49.25343396226415" height="49.25343396226415" width="395.52"><g id="textblocktransform"><svg viewBox="0 0 395.52 49.25343396226415" height="49.25343396226415" width="395.52" id="textblock"><g><svg viewBox="0 0 395.52 49.25343396226415" height="49.25343396226415" width="395.52"><g transform="matrix(1,0,0,1,0,0)"><svg width="395.52" viewBox="1.05 -34 278.21999999999997 34.65" height="49.25343396226415" data-palette-color="#ebe6c8"><path d="M9.9 0.65L9.9 0.65Q5.55 0.65 3.3-1.38 1.05-3.4 1.05-7.25L1.05-7.25Q1.05-10 2-11.58 2.95-13.15 3.75-13.95L3.75-13.95Q4.45-14.65 4.9-14.83 5.35-15 5.65-15L5.65-15Q6.3-15 6.68-14.65 7.05-14.3 7.05-13.75L7.05-13.75Q7.05-13.4 6.93-13.13 6.8-12.85 6.65-12.65L6.65-12.65Q5.6-11.3 5.6-9.3L5.6-9.3Q5.6-7 7.2-5.95 8.8-4.9 11.35-4.9L11.35-4.9Q14.9-4.9 16.5-6.88 18.1-8.85 18.35-12.2L18.35-12.2Q18.45-13.4 18.48-14.95 18.5-16.5 18.5-17.9L18.5-17.9Q18.4-23.15 17.65-26.65L17.65-26.65Q16.4-26.75 14.95-26.8 13.5-26.85 12.2-26.85L12.2-26.85Q7.7-26.85 5.15-26.2L5.15-26.2Q4.3-26 3.75-26L3.75-26Q3.35-26 3.18-26.18 3-26.35 3-27L3-27Q3-27.9 3.3-28.75 3.6-29.6 4.1-30.25L4.1-30.25Q4.65-31 5.4-31.33 6.15-31.65 7.25-31.75L7.25-31.75Q8.95-31.9 11.23-32.02 13.5-32.15 16.4-32.15L16.4-32.15Q18.8-32.15 20.28-32.05 21.75-31.95 22.35-31.85L22.35-31.85Q23.05-31.75 23.35-31.4 23.65-31.05 23.65-30.25L23.65-30.25Q23.65-29.55 23.43-28.8 23.2-28.05 22.8-27.5L22.8-27.5Q22.9-20.8 22.58-15.38 22.25-9.95 20.6-6.2L20.6-6.2Q17.5 0.65 9.9 0.65ZM35.35 0.65L35.35 0.65Q31.9 0.65 29.82-1.23 27.75-3.1 27.75-6.75L27.75-6.75Q27.75-8.45 28.22-10.05 28.7-11.65 29.5-13.05L29.5-13.05Q28.7-12.55 28.3-12.55L28.3-12.55Q27.7-12.55 27.47-13.23 27.25-13.9 27.25-14.55L27.25-14.55Q27.25-15.7 27.72-16.38 28.2-17.05 28.65-17.4L28.65-17.4Q29.7-18.3 31.95-19.38 34.2-20.45 37.35-20.45L37.35-20.45Q41.65-20.45 44.02-18.05 46.4-15.65 46.4-11.35L46.4-11.35Q46.4-8 45-5.28 43.6-2.55 41.12-0.95 38.65 0.65 35.35 0.65ZM36.9-4.45L36.9-4.45Q39.4-4.45 41.12-6.03 42.85-7.6 42.85-10.2L42.85-10.2Q42.85-12.9 41.1-14.05 39.35-15.2 37.05-15.2L37.05-15.2Q36-15.2 35.15-15 34.3-14.8 33.55-14.5L33.55-14.5Q32.85-13.5 32.3-12.25 31.75-11 31.75-9.5L31.75-9.5Q31.75-7 33.25-5.73 34.75-4.45 36.9-4.45ZM56.49-23.9L56.49-23.9Q55.8-23.9 55.37-24.63 54.95-25.35 54.95-26.25L54.95-26.25Q54.95-27.75 56.17-29.08 57.39-30.4 59.59-30.4L59.59-30.4Q61.45-30.4 63.45-29.4L63.45-29.4Q64.3-29 65.14-28.63 66-28.25 66.75-28.25L66.75-28.25Q67.55-28.25 67.87-28.7 68.19-29.15 68.3-29.65L68.3-29.65Q68.39-30.05 68.59-30.33 68.8-30.6 69.19-30.6L69.19-30.6Q69.84-30.6 70.32-29.88 70.8-29.15 70.8-28.2L70.8-28.2Q70.8-26.6 69.5-25.25 68.19-23.9 66.14-23.9L66.14-23.9Q65.25-23.9 64.3-24.18 63.34-24.45 62.39-24.9L62.39-24.9Q61.45-25.45 60.59-25.78 59.74-26.1 59.05-26.1L59.05-26.1Q58.24-26.1 57.92-25.7 57.59-25.3 57.45-24.85L57.45-24.85Q57.39-24.5 57.2-24.2 56.99-23.9 56.49-23.9ZM56.45 0.65L56.45 0.65Q53.45 0.65 51.62-1.23 49.8-3.1 49.8-6.6L49.8-6.6Q49.8-9.1 50.77-11.58 51.74-14.05 53.59-16.05 55.45-18.05 58.05-19.25 60.64-20.45 63.89-20.45L63.89-20.45Q66.89-20.45 69.02-19.43 71.14-18.4 71.14-16.65L71.14-16.65Q71.14-16.2 71.05-15.48 70.94-14.75 70.8-14.3L70.8-14.3Q70.64-13.9 70.37-13.58 70.09-13.25 69.64-13.25L69.64-13.25Q69.44-13.25 68.89-13.4L68.89-13.4Q68.69-12.35 68.59-11.35 68.5-10.35 68.5-9.35L68.5-9.35Q68.5-7.45 69.07-5.98 69.64-4.5 71.34-4.15L71.34-4.15Q71.8-4.05 72.07-3.85 72.34-3.65 72.34-3L72.34-3Q72.34-2.45 72.07-1.6 71.8-0.75 71.02-0.08 70.25 0.6 68.8 0.6L68.8 0.6Q66.84 0.6 65.8-0.83 64.75-2.25 64.75-4.9L64.75-4.9Q63.39-2.45 61.32-0.9 59.24 0.65 56.45 0.65ZM58.05-4.55L58.05-4.55Q60.05-4.55 61.57-5.8 63.09-7.05 63.95-8.95L63.95-8.95Q64.5-10.15 64.8-11.58 65.09-13 65.19-14.4L65.19-14.4Q64.34-14.8 63.24-15.05 62.14-15.3 60.95-15.3L60.95-15.3Q57.89-15.3 55.92-13.5 53.95-11.7 53.95-9L53.95-9Q53.95-7 55.05-5.78 56.14-4.55 58.05-4.55ZM83.34 0.65L83.34 0.65Q79.89 0.65 77.82-1.23 75.74-3.1 75.74-6.75L75.74-6.75Q75.74-8.45 76.22-10.05 76.69-11.65 77.49-13.05L77.49-13.05Q76.69-12.55 76.29-12.55L76.29-12.55Q75.69-12.55 75.47-13.23 75.24-13.9 75.24-14.55L75.24-14.55Q75.24-15.7 75.72-16.38 76.19-17.05 76.64-17.4L76.64-17.4Q77.69-18.3 79.94-19.38 82.19-20.45 85.34-20.45L85.34-20.45Q89.64-20.45 92.02-18.05 94.39-15.65 94.39-11.35L94.39-11.35Q94.39-8 92.99-5.28 91.59-2.55 89.12-0.95 86.64 0.65 83.34 0.65ZM84.89-4.45L84.89-4.45Q87.39-4.45 89.12-6.03 90.84-7.6 90.84-10.2L90.84-10.2Q90.84-12.9 89.09-14.05 87.34-15.2 85.04-15.2L85.04-15.2Q83.99-15.2 83.14-15 82.29-14.8 81.54-14.5L81.54-14.5Q80.84-13.5 80.29-12.25 79.74-11 79.74-9.5L79.74-9.5Q79.74-7 81.24-5.73 82.74-4.45 84.89-4.45ZM118.99 0.65L118.99 0.65Q115.99 0.65 114.26-1.35 112.54-3.35 112.54-6.8L112.54-6.8Q112.54-9.35 113.36-11.8 114.19-14.25 115.69-16.2 117.19-18.15 119.19-19.3 121.19-20.45 123.54-20.45L123.54-20.45Q125.04-20.45 126.21-20 127.39-19.55 128.29-18.85L128.29-18.85Q128.24-22.25 127.94-24.95 127.64-27.65 126.49-29.95L126.49-29.95Q126.29-30.35 126.16-30.68 126.04-31 126.04-31.3L126.04-31.3Q126.04-32 126.61-32.6 127.19-33.2 128.04-33.6 128.89-34 129.64-34L129.64-34Q130.99-34 131.66-32.83 132.34-31.65 132.54-29.63 132.74-27.6 132.74-25L132.74-25Q132.74-21.2 132.39-18.15 132.04-15.1 131.74-12.8L131.74-12.8Q131.54-11.3 131.39-10.2 131.24-9.1 131.24-8.4L131.24-8.4Q131.24-4.85 134.29-4.2L134.29-4.2Q135.09-4.05 135.09-3.15L135.09-3.15Q135.09-2.6 134.76-1.75 134.44-0.9 133.59-0.23 132.74 0.45 131.14 0.45L131.14 0.45Q128.99 0.45 128.24-1 127.49-2.45 127.49-5.4L127.49-5.4Q126.09-2.85 123.94-1.1 121.79 0.65 118.99 0.65ZM120.54-4.7L120.54-4.7Q121.94-4.7 123.34-5.6 124.74-6.5 125.84-8.05L125.84-8.05Q126.49-9 127.01-10.23 127.54-11.45 127.99-12.7L127.99-12.7Q125.44-15 122.34-15L122.34-15Q119.64-15 118.04-13.38 116.44-11.75 116.44-9.35L116.44-9.35Q116.44-7.3 117.64-6 118.84-4.7 120.54-4.7ZM146.19 0.65L146.19 0.65Q142.38 0.65 140.26-1.53 138.13-3.7 138.13-7.6L138.13-7.6Q138.13-11.15 139.69-14.05 141.24-16.95 143.86-18.68 146.49-20.4 149.63-20.4L149.63-20.4Q152.63-20.4 154.44-18.93 156.24-17.45 156.24-15L156.24-15Q156.24-13.05 155.03-11.4 153.84-9.75 151.84-8.78 149.84-7.8 147.38-7.8L147.38-7.8Q144.38-7.8 142.49-9.15L142.49-9.15Q142.53-6.85 144.06-5.45 145.59-4.05 147.99-4.05L147.99-4.05Q149.44-4.05 150.96-4.58 152.49-5.1 153.59-6L153.59-6Q154.28-6.6 154.88-6.6L154.88-6.6Q155.38-6.6 155.71-6.28 156.03-5.95 156.03-5.45L156.03-5.45Q156.03-4.35 154.13-2.55L154.13-2.55Q150.78 0.65 146.19 0.65ZM146.94-11.1L146.94-11.1Q148.74-11.1 149.94-11.85 151.13-12.6 151.13-13.75L151.13-13.75Q151.13-14.7 150.34-15.23 149.53-15.75 148.13-15.75L148.13-15.75Q146.28-15.75 144.91-14.78 143.53-13.8 142.94-12.05L142.94-12.05Q143.63-11.6 144.74-11.35 145.84-11.1 146.94-11.1ZM183.43 0.6L183.43 0.6Q179.28 0.6 177.48-1.38 175.68-3.35 175.68-6.6L175.68-6.6Q175.68-7.45 175.83-8.65 175.98-9.85 176.23-11.55L176.23-11.55Q176.63-14 176.83-15.93 177.03-17.85 177.03-20.15L177.03-20.15Q177.03-22.8 176.88-24.45L176.88-24.45Q176.03-23.95 175.63-23.95L175.63-23.95Q174.83-23.95 174.83-25.75L174.83-25.75Q174.83-27.15 175.46-28.13 176.08-29.1 177.53-29.95L177.53-29.95Q178.98-30.85 181.21-31.5 183.43-32.15 185.98-32.15L185.98-32.15Q190.13-32.15 192.28-30.25 194.43-28.35 194.43-25.25L194.43-25.25Q194.43-23.25 193.58-21.55 192.73-19.85 191.18-18.55L191.18-18.55Q197.43-17.55 197.43-11.35L197.43-11.35Q197.43-8 195.53-5.25 193.63-2.5 190.38-0.95L190.38-0.95Q187.23 0.6 183.43 0.6ZM185.43-4.95L185.43-4.95Q187.68-4.95 189.5-5.58 191.33-6.2 192.43-7.4 193.53-8.6 193.53-10.2L193.53-10.2Q193.53-12.25 192.08-13.1 190.63-13.95 188.73-13.95L188.73-13.95Q187.93-13.95 186.73-13.8L186.73-13.8Q186.23-13.7 185.58-13.7L185.58-13.7Q184.48-13.7 183.75-14.6 183.03-15.5 183.03-16.85L183.03-16.85Q183.03-17.8 183.88-18.05L183.88-18.05Q189.98-19.65 189.98-23.6L189.98-23.6Q189.98-26.75 185.63-26.75L185.63-26.75Q184.03-26.75 181.68-26.2L181.68-26.2Q181.68-23.75 181.43-21.08 181.18-18.4 180.68-15.5L180.68-15.5Q180.38-13.5 180.21-12.13 180.03-10.75 180.03-9.9L180.03-9.9Q180.03-7.2 181.38-6.08 182.73-4.95 185.43-4.95ZM207.18 0.65L207.18 0.65Q204.18 0.65 202.35-1.23 200.53-3.1 200.53-6.6L200.53-6.6Q200.53-9.1 201.5-11.58 202.48-14.05 204.33-16.05 206.18-18.05 208.78-19.25 211.38-20.45 214.63-20.45L214.63-20.45Q217.63-20.45 219.75-19.43 221.88-18.4 221.88-16.65L221.88-16.65Q221.88-16.2 221.78-15.48 221.68-14.75 221.53-14.3L221.53-14.3Q221.38-13.9 221.1-13.58 220.83-13.25 220.38-13.25L220.38-13.25Q220.18-13.25 219.63-13.4L219.63-13.4Q219.43-12.35 219.33-11.35 219.23-10.35 219.23-9.35L219.23-9.35Q219.23-7.45 219.8-5.98 220.38-4.5 222.08-4.15L222.08-4.15Q222.53-4.05 222.8-3.85 223.08-3.65 223.08-3L223.08-3Q223.08-2.45 222.8-1.6 222.53-0.75 221.75-0.08 220.98 0.6 219.53 0.6L219.53 0.6Q217.58 0.6 216.53-0.83 215.48-2.25 215.48-4.9L215.48-4.9Q214.13-2.45 212.05-0.9 209.98 0.65 207.18 0.65ZM208.78-4.55L208.78-4.55Q210.78-4.55 212.3-5.8 213.83-7.05 214.68-8.95L214.68-8.95Q215.23-10.15 215.53-11.58 215.83-13 215.93-14.4L215.93-14.4Q215.08-14.8 213.98-15.05 212.88-15.3 211.68-15.3L211.68-15.3Q208.63-15.3 206.65-13.5 204.68-11.7 204.68-9L204.68-9Q204.68-7 205.78-5.78 206.88-4.55 208.78-4.55ZM229.18 0.55L229.18 0.55Q228.38 0.55 227.9 0.28 227.43 0 227.58-0.65L227.58-0.65Q228.13-2.8 228.5-5.03 228.88-7.25 228.88-9.3L228.88-9.3Q228.88-11.95 228.55-13.18 228.23-14.4 227.68-14.88 227.13-15.35 226.33-15.6L226.33-15.6Q225.98-15.75 225.7-16 225.43-16.25 225.43-16.7L225.43-16.7Q225.43-17.4 225.98-18.25 226.53-19.1 227.53-19.73 228.53-20.35 229.83-20.35L229.83-20.35Q231.53-20.35 232.2-19.18 232.88-18 232.88-16.1L232.88-16.1Q233.78-18.1 235.1-19.28 236.43-20.45 238.43-20.45L238.43-20.45Q239.78-20.45 240.68-19.85 241.58-19.25 241.58-17.9L241.58-17.9Q241.58-16.55 240.7-15.38 239.83-14.2 238.93-14.2L238.93-14.2Q238.78-14.2 238.58-14.25 238.38-14.3 238.23-14.5L238.23-14.5Q237.58-15.3 236.63-15.3L236.63-15.3Q235.18-15.3 234.08-13.4 232.98-11.5 232.88-8.15L232.88-8.15Q232.93-6.9 232.95-5.6 232.98-4.3 232.98-3.7L232.98-3.7Q232.98-1.85 231.95-0.65 230.93 0.55 229.18 0.55ZM246.12 0.55L246.12 0.55Q245.32 0.55 244.85 0.28 244.37 0 244.52-0.65L244.52-0.65Q245.07-2.8 245.45-5.03 245.82-7.25 245.82-9.3L245.82-9.3Q245.82-11.95 245.5-13.18 245.17-14.4 244.62-14.88 244.07-15.35 243.27-15.6L243.27-15.6Q242.92-15.75 242.65-16 242.37-16.25 242.37-16.7L242.37-16.7Q242.37-17.4 242.92-18.25 243.47-19.1 244.47-19.73 245.47-20.35 246.77-20.35L246.77-20.35Q248.47-20.35 249.15-19.18 249.82-18 249.82-16.1L249.82-16.1Q250.72-18.1 252.05-19.28 253.37-20.45 255.37-20.45L255.37-20.45Q256.72-20.45 257.62-19.85 258.52-19.25 258.52-17.9L258.52-17.9Q258.52-16.55 257.65-15.38 256.77-14.2 255.87-14.2L255.87-14.2Q255.72-14.2 255.52-14.25 255.32-14.3 255.17-14.5L255.17-14.5Q254.52-15.3 253.57-15.3L253.57-15.3Q252.12-15.3 251.02-13.4 249.92-11.5 249.82-8.15L249.82-8.15Q249.87-6.9 249.9-5.6 249.92-4.3 249.92-3.7L249.92-3.7Q249.92-1.85 248.9-0.65 247.87 0.55 246.12 0.55ZM268.22 0.65L268.22 0.65Q264.77 0.65 262.69-1.23 260.62-3.1 260.62-6.75L260.62-6.75Q260.62-8.45 261.1-10.05 261.57-11.65 262.37-13.05L262.37-13.05Q261.57-12.55 261.17-12.55L261.17-12.55Q260.57-12.55 260.35-13.23 260.12-13.9 260.12-14.55L260.12-14.55Q260.12-15.7 260.6-16.38 261.07-17.05 261.52-17.4L261.52-17.4Q262.57-18.3 264.82-19.38 267.07-20.45 270.22-20.45L270.22-20.45Q274.52-20.45 276.9-18.05 279.27-15.65 279.27-11.35L279.27-11.35Q279.27-8 277.87-5.28 276.47-2.55 274-0.95 271.52 0.65 268.22 0.65ZM269.77-4.45L269.77-4.45Q272.27-4.45 274-6.03 275.72-7.6 275.72-10.2L275.72-10.2Q275.72-12.9 273.97-14.05 272.22-15.2 269.92-15.2L269.92-15.2Q268.87-15.2 268.02-15 267.17-14.8 266.42-14.5L266.42-14.5Q265.72-13.5 265.17-12.25 264.62-11 264.62-9.5L264.62-9.5Q264.62-7 266.12-5.73 267.62-4.45 269.77-4.45Z" opacity="1" transform="matrix(1,0,0,1,0,0)" fill="#ebe6c8" class="wordmark-text-0" data-fill-palette-color="primary" id="text-0"></path></svg></g></svg></g></svg></g></svg></g><g><svg viewBox="0 0 182.18285385725758 128.94549011320754" height="128.94549011320754" width="182.18285385725758"><g><svg xmlns="http://www.w3.org/2000/svg" xmlns:xlink="http://www.w3.org/1999/xlink" version="1.1" x="0" y="0" viewBox="2.999 16.7325 94.003 66.5335" enable-background="new 0 0 100 100" xml:space="preserve" height="128.94549011320754" width="182.18285385725758" class="icon-icon-0" data-fill-palette-color="accent" id="icon-0"><path d="M97.002 83.222L82.023 68.243C73.567 76.632 51.119 67.107 37.065 53.055L37.529 52.591C49.298 64.36 71.218 71.552 78.314 64.533L34.751 20.97C29.102 15.32 19.942 15.32 14.292 20.97A14.6 14.6 0 0 0 12.578 23.034L4.11 20.813 8.017 27.132 2.999 31.63 10.112 31.842A27.66 27.66 0 0 0 13.98 44.295 25.3 25.3 0 0 0 10.055 57.865C10.055 71.894 21.428 83.266 35.456 83.266zM23.688 30.507A3.355 3.355 0 1 1 23.688 23.797 3.355 3.355 0 0 1 23.687 30.508" fill="#f4f0e3" data-fill-palette-color="accent"></path></svg></g></svg></g></svg></g><defs></defs></svg><rect width="395.52" height="86.5397739496264" fill="none" stroke="none" visibility="hidden"></rect></g></svg></g></svg>