<svg xmlns="http://www.w3.org/2000/svg" version="1.1" xmlns:xlink="http://www.w3.org/1999/xlink" xmlns:svgjs="http://svgjs.dev/svgjs" width="128" height="128" viewBox="0 0 128 128"><g transform="matrix(0.8046875,0,0,0.8046875,12.221578124999994,27.56519356072316)"><svg viewBox="0 0 96 68" data-background-color="#211f3c" preserveAspectRatio="xMidYMid meet" height="90" width="128" xmlns="http://www.w3.org/2000/svg" xmlns:xlink="http://www.w3.org/1999/xlink"><g id="tight-bounds" transform="matrix(1,0,0,1,0.25950000000000273,0.2102001345701865)"><svg viewBox="0 0 95.48099999999998 67.57959973085964" height="67.57959973085964" width="95.48099999999998"><g><svg viewBox="0 0 95.48099999999998 67.57959973085964" height="67.57959973085964" width="95.48099999999998"><g><svg viewBox="0 0 95.48099999999998 67.57959973085964" height="67.57959973085964" width="95.48099999999998"><g id="textblocktransform"><svg viewBox="0 0 95.48099999999998 67.57959973085964" height="67.57959973085964" width="95.48099999999998" id="textblock"><g><svg viewBox="0 0 95.48099999999998 67.57959973085964" height="67.57959973085964" width="95.48099999999998"><g><svg viewBox="0 0 95.48099999999998 67.57959973085964" height="67.57959973085964" width="95.48099999999998"><g><svg xmlns="http://www.w3.org/2000/svg" xmlns:xlink="http://www.w3.org/1999/xlink" version="1.1" x="0" y="0" viewBox="2.999 16.7325 94.003 66.5335" enable-background="new 0 0 100 100" xml:space="preserve" height="67.57959973085964" width="95.48099999999998" class="icon-icon-0" data-fill-palette-color="accent" id="icon-0"><path d="M97.002 83.222L82.023 68.243C73.567 76.632 51.119 67.107 37.065 53.055L37.529 52.591C49.298 64.36 71.218 71.552 78.314 64.533L34.751 20.97C29.102 15.32 19.942 15.32 14.292 20.97A14.6 14.6 0 0 0 12.578 23.034L4.11 20.813 8.017 27.132 2.999 31.63 10.112 31.842A27.66 27.66 0 0 0 13.98 44.295 25.3 25.3 0 0 0 10.055 57.865C10.055 71.894 21.428 83.266 35.456 83.266zM23.688 30.507A3.355 3.355 0 1 1 23.688 23.797 3.355 3.355 0 0 1 23.687 30.508" fill="#000000" data-fill-palette-color="accent"></path></svg></g></svg></g></svg></g></svg></g></svg></g></svg></g><defs></defs></svg><rect width="95.48099999999998" height="67.57959973085964" fill="none" stroke="none" visibility="hidden"></rect></g></svg></g></svg>